<svg width="0" height="0" fill="none"
  style="visibility: hidden; position: absolute;" aria-hidden="true"
  xmlns="http://www.w3.org/2000/svg">
  <symbol id="chevron" viewBox="0 0 16 9">
    <path
      d="M14.2475 0.6574L8 6.7474L1.7525 0.6574C1.64088 0.548372 1.49103 0.487334 1.335 0.487334C1.17897 0.487334 1.02912 0.548372 0.9175 0.6574C0.863453 0.710356 0.820515 0.773562 0.791203 0.84332C0.76189 0.913078 0.746792 0.987984 0.746792 1.06365C0.746792 1.13932 0.76189 1.21422 0.791203 1.28398C0.820515 1.35374 0.863453 1.41694 0.9175 1.4699L7.56375 7.9499C7.68047 8.06367 7.83701 8.12734 8 8.12734C8.16299 8.12734 8.31953 8.06367 8.43625 7.9499L15.0825 1.47115C15.1369 1.41816 15.1802 1.35479 15.2097 1.2848C15.2393 1.21481 15.2545 1.13962 15.2545 1.06365C15.2545 0.987683 15.2393 0.912485 15.2097 0.842496C15.1802 0.772507 15.1369 0.709145 15.0825 0.65615C14.9709 0.547122 14.821 0.486084 14.665 0.486084C14.509 0.486084 14.3591 0.547122 14.2475 0.65615V0.6574Z" />
  </symbol>
  <symbol id="calendar" viewBox="0 0 18 18">
    <path
      d="M16.3125 18H1.6875C0.75375 18 0 17.2463 0 16.3125V2.8125C0 1.87875 0.75375 1.125 1.6875 1.125H16.3125C17.2463 1.125 18 1.87875 18 2.8125V16.3125C18 17.2463 17.2463 18 16.3125 18ZM1.6875 2.25C1.3725 2.25 1.125 2.4975 1.125 2.8125V16.3125C1.125 16.6275 1.3725 16.875 1.6875 16.875H16.3125C16.6275 16.875 16.875 16.6275 16.875 16.3125V2.8125C16.875 2.4975 16.6275 2.25 16.3125 2.25H1.6875Z" />
    <path
      d="M5.0625 4.5C4.7475 4.5 4.5 4.2525 4.5 3.9375V0.5625C4.5 0.2475 4.7475 0 5.0625 0C5.3775 0 5.625 0.2475 5.625 0.5625V3.9375C5.625 4.2525 5.3775 4.5 5.0625 4.5ZM12.9375 4.5C12.6225 4.5 12.375 4.2525 12.375 3.9375V0.5625C12.375 0.2475 12.6225 0 12.9375 0C13.2525 0 13.5 0.2475 13.5 0.5625V3.9375C13.5 4.2525 13.2525 4.5 12.9375 4.5ZM17.4375 6.75H0.5625C0.2475 6.75 0 6.5025 0 6.1875C0 5.8725 0.2475 5.625 0.5625 5.625H17.4375C17.7525 5.625 18 5.8725 18 6.1875C18 6.5025 17.7525 6.75 17.4375 6.75Z" />
  </symbol>
  <symbol id="play" viewBox="0 0 15 16">
    <path
      d="M3.24267 0.655715C2.96389 0.496474 2.64819 0.413232 2.32714 0.414317C2.00609 0.415402 1.69096 0.500775 1.41326 0.661897C1.13557 0.823018 0.905057 1.05424 0.744785 1.33242C0.584513 1.6106 0.500104 1.926 0.5 2.24705V13.7549C0.500104 14.0759 0.584513 14.3913 0.744785 14.6695C0.905057 14.9477 1.13557 15.1789 1.41326 15.34C1.69096 15.5012 2.00609 15.5865 2.32714 15.5876C2.64819 15.5887 2.96389 15.5055 3.24267 15.3462L13.3113 9.59138C13.5917 9.43097 13.8248 9.19931 13.9869 8.91986C14.1489 8.64041 14.2343 8.3231 14.2343 8.00005C14.2343 7.677 14.1489 7.35969 13.9869 7.08024C13.8248 6.80079 13.5917 6.56913 13.3113 6.40872L3.24267 0.655715Z" />
  </symbol>
  <symbol id="star" viewBox="0 0 18 17">
    <path
      d="M9 14.27L13.15 16.78C13.91 17.24 14.84 16.56 14.64 15.7L13.54 10.98L17.21 7.79999C17.88 7.22 17.52 6.12 16.64 6.04999L11.81 5.64L9.92 1.17999C9.58 0.369995 8.42 0.369995 8.08 1.17999L6.19 5.62999L1.36 6.03999C0.48 6.10999 0.12 7.20999 0.79 7.78999L4.46 10.97L3.36 15.69C3.16 16.55 4.09 17.23 4.85 16.77L9 14.27Z" />
  </symbol>
  <symbol id="telegram" viewBox="0 0 28 28">
    <path
      d="M14 0.666748C6.63999 0.666748 0.666656 6.64008 0.666656 14.0001C0.666656 21.3601 6.63999 27.3334 14 27.3334C21.36 27.3334 27.3333 21.3601 27.3333 14.0001C27.3333 6.64008 21.36 0.666748 14 0.666748ZM20.1867 9.73342C19.9867 11.8401 19.12 16.9601 18.68 19.3201C18.4933 20.3201 18.12 20.6534 17.7733 20.6934C17 20.7601 16.4133 20.1868 15.6667 19.6934C14.4933 18.9201 13.8267 18.4401 12.6933 17.6934C11.3733 16.8268 12.2267 16.3468 12.9867 15.5734C13.1867 15.3734 16.6 12.2668 16.6667 11.9867C16.6759 11.9443 16.6747 11.9003 16.6631 11.8585C16.6515 11.8167 16.6298 11.7783 16.6 11.7468C16.52 11.6801 16.4133 11.7067 16.32 11.7201C16.2 11.7467 14.3333 12.9868 10.6933 15.4401C10.16 15.8001 9.67999 15.9868 9.25332 15.9734C8.77332 15.9601 7.86666 15.7068 7.18666 15.4801C6.34666 15.2134 5.69332 15.0668 5.74666 14.6001C5.77332 14.3601 6.10666 14.1201 6.73332 13.8668C10.6267 12.1734 13.2133 11.0534 14.5067 10.5201C18.2133 8.97342 18.9733 8.70675 19.48 8.70675C19.5867 8.70675 19.84 8.73342 20 8.86675C20.1333 8.97342 20.1733 9.12008 20.1867 9.22675C20.1733 9.30675 20.2 9.54675 20.1867 9.73342Z" />
  </symbol>
  <symbol id="vk" viewBox="0 0 27 27">
    <path
      d="M13.36 -0.000244141C5.98138 -0.000244141 0 5.98114 0 13.3598C0 20.7384 5.98138 26.7198 13.36 26.7198C20.7386 26.7198 26.72 20.7384 26.72 13.3598C26.72 5.98114 20.7386 -0.000244141 13.36 -0.000244141ZM18.498 15.0729C18.498 15.0729 19.6796 16.2391 19.9704 16.7805C19.9788 16.7916 19.9829 16.8027 19.9857 16.8083C20.104 17.0073 20.1318 17.1618 20.0734 17.2773C19.976 17.4693 19.642 17.564 19.5279 17.5723H17.4404C17.2956 17.5723 16.9922 17.5348 16.6248 17.2815C16.3423 17.0839 16.064 16.7596 15.7926 16.4437C15.3877 15.9733 15.037 15.5669 14.6835 15.5669C14.6386 15.5669 14.594 15.5739 14.5513 15.5878C14.2841 15.6741 13.9417 16.0554 13.9417 17.0713C13.9417 17.3886 13.6912 17.5709 13.5145 17.5709H12.5584C12.2327 17.5709 10.5363 17.4568 9.03331 15.8717C7.19352 13.9303 5.53744 10.0365 5.52352 10.0003C5.41915 9.74838 5.63486 9.61339 5.87005 9.61339H7.97842C8.25954 9.61339 8.35139 9.78456 8.41541 9.93625C8.49056 10.113 8.76611 10.8158 9.2184 11.6063C9.95181 12.8949 10.4013 13.4182 10.7618 13.4182C10.8293 13.4174 10.8957 13.4002 10.9552 13.3681C11.4256 13.1065 11.3379 11.4295 11.317 11.0816C11.317 11.0162 11.3156 10.3315 11.0749 10.0031C10.9023 9.76508 10.6087 9.67462 10.4305 9.64122C10.5026 9.54173 10.5976 9.46106 10.7075 9.40603C11.0303 9.2446 11.6121 9.22094 12.1896 9.22094H12.5111C13.1373 9.22929 13.2988 9.26965 13.5256 9.3267C13.9849 9.43665 13.9946 9.73307 13.9542 10.7476C13.9417 11.0357 13.9292 11.3613 13.9292 11.7454C13.9292 11.8289 13.925 11.918 13.925 12.0126C13.9111 12.5289 13.8944 13.1148 14.259 13.3556C14.3066 13.3854 14.3615 13.4013 14.4177 13.4015C14.5443 13.4015 14.9256 13.4015 15.9582 11.6299C16.2767 11.0597 16.5534 10.4671 16.7863 9.85693C16.8072 9.82075 16.8684 9.70941 16.9408 9.66627C16.9942 9.63904 17.0534 9.62519 17.1133 9.62591H19.5919C19.8619 9.62591 20.047 9.66627 20.0817 9.77065C20.143 9.93625 20.0706 10.4414 18.9392 11.9737L18.434 12.6403C17.4084 13.9846 17.4084 14.0528 18.498 15.0729Z" />
  </symbol>
  <symbol id="pinterest" viewBox="0 0 28 28">
    <path
      d="M10.0533 26.7201C11.3333 27.1068 12.6267 27.3334 14 27.3334C17.5362 27.3334 20.9276 25.9287 23.4281 23.4282C25.9286 20.9277 27.3333 17.5363 27.3333 14.0001C27.3333 12.2491 26.9885 10.5153 26.3184 8.89764C25.6483 7.27996 24.6662 5.81011 23.4281 4.57199C22.19 3.33388 20.7201 2.35175 19.1025 1.68169C17.4848 1.01163 15.751 0.666748 14 0.666748C12.249 0.666748 10.5152 1.01163 8.89756 1.68169C7.27989 2.35175 5.81003 3.33388 4.57192 4.57199C2.07143 7.07248 0.666672 10.4639 0.666672 14.0001C0.666672 19.6668 4.22667 24.5334 9.25334 26.4534C9.13334 25.4134 9.01334 23.6934 9.25334 22.5068L10.7867 15.9201C10.7867 15.9201 10.4 15.1468 10.4 13.9201C10.4 12.0801 11.5467 10.7067 12.8533 10.7067C14 10.7067 14.5333 11.5468 14.5333 12.6268C14.5333 13.7734 13.7733 15.4134 13.3867 16.9868C13.16 18.2934 14.08 19.4401 15.4133 19.4401C17.7867 19.4401 19.6267 16.9068 19.6267 13.3334C19.6267 10.1334 17.3333 7.94675 14.04 7.94675C10.28 7.94675 8.06667 10.7468 8.06667 13.6934C8.06667 14.8401 8.44001 16.0001 9.05334 16.7601C9.17334 16.8401 9.17334 16.9468 9.13334 17.1468L8.74667 18.6001C8.74667 18.8268 8.60001 18.9068 8.37334 18.7468C6.66667 18.0001 5.68001 15.5734 5.68001 13.6134C5.68001 9.40008 8.66667 5.57342 14.4267 5.57342C19.0133 5.57342 22.5867 8.86675 22.5867 13.2401C22.5867 17.8268 19.7467 21.5068 15.68 21.5068C14.3867 21.5068 13.12 20.8134 12.6667 20.0001L11.7733 23.1601C11.4667 24.3068 10.6267 25.8401 10.0533 26.7601V26.7201Z" />
  </symbol>
  <symbol id="skype" viewBox="0 0 24 24">
    <path
      d="M20 4C22.76 6.72 23.8 10.52 23.1467 14.0667C23.6933 15.0267 24 16.1467 24 17.3333C24 19.1014 23.2976 20.7971 22.0474 22.0474C20.7971 23.2976 19.1014 24 17.3333 24C16.1467 24 15.0267 23.6933 14.0667 23.1467C10.52 23.8 6.72 22.76 4 20C1.24 17.28 0.2 13.48 0.853333 9.93333C0.306667 8.97333 0 7.85333 0 6.66667C0 4.89856 0.702379 3.20286 1.95262 1.95262C3.20286 0.702379 4.89856 0 6.66667 0C7.85333 0 8.97333 0.306667 9.93333 0.853333C13.48 0.2 17.28 1.24 20 4ZM12.0533 18.88C15.88 18.88 17.7867 17.04 17.7867 14.56C17.7867 12.9733 17.04 11.28 14.1467 10.6267L11.4933 10.04C10.48 9.81333 9.33333 9.50667 9.33333 8.56C9.33333 7.6 10.1333 6.93333 11.6 6.93333C14.5733 6.93333 14.2933 8.97333 15.7733 8.97333C16.5467 8.97333 17.2133 8.52 17.2133 7.73333C17.2133 5.90667 14.2933 4.53333 11.8133 4.53333C9.13333 4.53333 6.26667 5.68 6.26667 8.72C6.26667 10.1867 6.78667 11.7467 9.66667 12.4667L13.2533 13.3733C14.3333 13.64 14.6 14.24 14.6 14.8C14.6 15.7067 13.6933 16.6 12.0533 16.6C8.84 16.6 9.28 14.1333 7.56 14.1333C6.78667 14.1333 6.22667 14.6667 6.22667 15.4267C6.22667 16.9067 8 18.88 12.0533 18.88Z" />
  </symbol>
  <symbol id="chevron-right" viewBox="0 0 6 10">
    <path
      d="M5.7154 4.6098L1.26527 0.159755C1.16235 0.0567475 1.02495 0 0.878448 0C0.731945 0 0.594548 0.0567475 0.491622 0.159755L0.163901 0.487394C-0.0493491 0.700889 -0.0493491 1.04788 0.163901 1.26105L3.90078 4.99793L0.159755 8.73895C0.0568288 8.84196 0 8.97928 0 9.1257C0 9.27228 0.0568288 9.4096 0.159755 9.51269L0.487476 9.84024C0.590483 9.94325 0.727799 10 0.874302 10C1.0208 10 1.1582 9.94325 1.26113 9.84024L5.7154 5.38613C5.81857 5.2828 5.87524 5.14484 5.87491 4.99817C5.87524 4.85094 5.81857 4.71305 5.7154 4.6098Z" />
  </symbol>
  <symbol id="zoom" viewBox="0 0 20 20">
    <path
      d="M19 19L14.657 14.657M14.657 14.657C15.3999 13.9141 15.9892 13.0321 16.3912 12.0615C16.7933 11.0909 17.0002 10.0506 17.0002 8.99996C17.0002 7.94936 16.7933 6.90905 16.3912 5.93842C15.9892 4.96779 15.3999 4.08585 14.657 3.34296C13.9141 2.60007 13.0322 2.01078 12.0615 1.60874C11.0909 1.20669 10.0506 0.999756 8.99999 0.999756C7.94939 0.999756 6.90908 1.20669 5.93845 1.60874C4.96782 2.01078 4.08588 2.60007 3.34299 3.34296C1.84266 4.84329 0.999786 6.87818 0.999786 8.99996C0.999786 11.1217 1.84266 13.1566 3.34299 14.657C4.84332 16.1573 6.87821 17.0002 8.99999 17.0002C11.1218 17.0002 13.1567 16.1573 14.657 14.657ZM8.99999 5.99996V12M5.99999 8.99996H12"
      stroke-width="1.5" stroke-linecap="round" stroke-linejoin="round" />
  </symbol>
</svg>